PathFileType	4	(X/Y/Z)	c:/Users/goper/Files/vsCode/490R/osim_files/A05/A05_Slow_01.trc
DataRate	CameraRate	NumFrames	NumMarkers	Units                	OrigDataRate	OrigDataStartFrame	OrigNumFrames
250.00	250.00	10	36	mm	250.0	1840	3678
                Frame#	Time	LPSIS			LASIS			LTH1			LTH2			LTH3			LTH4			LLFE			LMFE			LSH1			LSH2			LSH3			LSH4			LLMAL			LMMAL			LCAL			LMTP5			LTOE			LMTP1			RPSIS			RASIS			RTH1			RTH2			RTH3			RTH4			RLFE			RMFE			RSH1			RSH2			RSH3			RSH4			RLMAL			RMMAL			RCAL			RMTP1			RTOE			RMTP5		
		X1	Y1	Z1	X2	Y2	Z2	X3	Y3	Z3	X4	Y4	Z4	X5	Y5	Z5	X6	Y6	Z6	X7	Y7	Z7	X8	Y8	Z8	X9	Y9	Z9	X10	Y10	Z10	X11	Y11	Z11	X12	Y12	Z12	X13	Y13	Z13	X14	Y14	Z14	X15	Y15	Z15	X16	Y16	Z16	X17	Y17	Z17	X18	Y18	Z18	X19	Y19	Z19	X20	Y20	Z20	X21	Y21	Z21	X22	Y22	Z22	X23	Y23	Z23	X24	Y24	Z24	X25	Y25	Z25	X26	Y26	Z26	X27	Y27	Z27	X28	Y28	Z28	X29	Y29	Z29	X30	Y30	Z30	X31	Y31	Z31	X32	Y32	Z32	X33	Y33	Z33	X34	Y34	Z34	X35	Y35	Z35	X36	Y36	Z36

1840	7.35600	7.47315	1028.64209	298.76776	-178.82745	994.29608	419.25473	-64.80941	703.95752	474.17212	-79.85883	663.52875	478.76749	-122.26779	718.27063	495.60211	-128.46317	675.17450	496.31427	-151.36063	495.19351	481.59009	-158.42441	489.88461	380.95212	-56.19366	454.23196	482.77100	-23.95380	423.58160	485.17514	-94.23840	406.05203	477.43851	-57.24983	381.13211	480.61569	123.19292	252.38860	471.44879	112.18913	248.83560	380.96078	212.11696	268.06650	408.34909	80.68453	119.68883	511.23019	24.40968	95.86005	458.75818	51.87564	115.83326	405.73898	-4.46492	1028.31616	218.42720	-188.79080	974.31787	126.40860	-193.43660	606.15308	73.37354	-209.74062	568.98230	85.17270	-248.80508	628.29199	94.91547	-252.56139	586.19910	98.54751	-190.21622	526.78497	89.13753	-221.04773	507.37277	228.96043	-176.92026	262.01199	94.49766	-179.47475	215.41931	105.10471	-238.27612	262.05853	98.78659	-230.97987	211.45398	107.08374	-188.49648	105.46561	126.71329	-239.41696	135.71019	208.56651	-143.46049	69.38139	211.16399	-356.30331	56.64534	198.39313	-384.68640	65.66036	142.11359	-314.35547	42.89965	86.78066
1841	7.36000	4.91106	1029.21899	298.05838	-181.30809	994.72540	418.69495	-69.02530	704.12286	473.72034	-84.39803	663.83038	478.30719	-126.27259	718.95221	495.28845	-132.77963	675.88672	495.97647	-157.28331	496.05099	481.39346	-164.58289	490.86664	380.81866	-62.21282	454.93497	482.36765	-29.98328	424.23764	484.65823	-100.40490	406.73721	477.06793	-63.35499	381.81537	480.24863	116.67043	252.73717	470.54840	105.38177	249.23878	380.06470	205.59683	268.24854	407.30408	74.03336	120.11346	510.46289	17.80392	96.27394	457.85529	44.77740	116.22480	405.12872	-7.07259	1028.89722	217.71042	-191.18221	974.57489	125.75179	-194.38998	606.26141	72.81647	-210.62651	569.06885	84.56523	-249.38260	628.54230	93.51329	-253.60532	586.12933	97.46299	-190.99591	526.88495	88.72596	-222.12274	507.60312	228.57011	-177.14359	262.11725	94.34457	-179.58493	215.51407	105.02161	-238.99832	261.34396	99.20930	-231.17152	211.46291	106.76113	-188.47955	105.49944	126.55864	-239.67023	135.82550	208.35316	-143.52762	69.47916	211.08479	-356.31769	56.58588	198.33620	-384.71152	65.55439	142.07841	-314.35681	42.82248	86.76817
1842	7.36400	2.35926	1029.75317	297.38284	-183.86505	995.26904	417.99286	-73.20455	704.28491	473.25977	-88.90343	664.16034	477.94833	-130.27066	719.63867	494.83160	-137.20377	676.59143	495.66266	-163.10890	497.01627	481.22824	-170.71663	491.79855	380.62869	-68.25340	455.58521	481.96579	-36.05523	424.80267	484.18109	-106.48286	407.49588	476.80035	-69.51595	382.51111	479.85553	110.27293	253.01926	469.73279	98.82262	249.52496	379.26123	198.91843	268.14722	406.20853	67.37064	120.48735	509.78494	10.71139	97.18346	458.03784	37.73842	116.60826	404.49448	-9.68852	1029.45312	217.02095	-193.61775	974.79932	125.12151	-195.39896	606.37885	72.25966	-211.51077	569.08569	83.96581	-250.45465	628.38885	92.76750	-254.55644	585.98792	96.66045	-191.88687	526.99341	88.26550	-223.18712	507.80090	228.12802	-177.30280	262.22729	94.20213	-179.72989	215.63516	104.87383	-239.17950	261.37003	98.87302	-231.24237	211.47763	106.51278	-188.58496	105.48987	126.40293	-240.02855	135.71489	207.94250	-143.43654	69.97774	210.78145	-356.27454	56.58455	198.27885	-384.71109	65.45670	141.98698	-314.34644	42.77359	86.70184
1843	7.36800	-0.13029	1030.28271	296.72394	-186.43141	995.76349	417.33231	-77.33596	704.46082	472.81476	-93.28014	664.46893	477.54218	-134.14536	720.32538	494.50491	-141.47578	677.33521	495.32956	-168.93068	497.91101	481.04840	-176.51071	492.77426	380.45331	-74.13840	456.23761	481.54443	-42.03114	425.31570	483.70413	-112.59872	408.22998	476.40698	-75.65556	383.15427	479.45129	103.67945	253.05632	468.92822	92.56210	250.09825	378.15784	192.11888	267.80994	405.10571	60.38455	120.62946	509.02686	3.66576	97.55016	457.48679	30.80864	117.00006	403.66537	-12.25342	1029.97278	216.37527	-196.13297	975.09454	124.28669	-196.40584	606.43921	71.71812	-212.43074	569.14441	83.42333	-251.60318	628.22375	92.02939	-255.54495	585.92145	95.88400	-192.59442	527.09509	87.83147	-224.52226	507.90915	227.50034	-177.54355	262.36948	93.99984	-179.89995	215.77605	104.69760	-239.38683	261.29010	98.55497	-231.37521	211.47665	106.19890	-188.61116	105.51186	126.23354	-240.17632	135.79460	207.69986	-143.58493	70.04442	210.80927	-356.27554	56.55340	198.23354	-384.74377	65.36594	141.92729	-314.36145	42.67982	86.67551
1844	7.37200	-2.69844	1030.76721	296.12253	-188.84737	996.08307	416.62695	-81.40897	704.65344	472.33148	-97.73234	664.75311	477.14224	-138.15970	720.99677	494.13745	-145.73016	678.01251	495.00934	-174.62534	498.91272	480.81100	-183.12170	493.59689	380.25885	-79.97389	456.80914	481.10892	-48.01058	425.77991	483.20398	-118.80236	408.89035	476.00015	-81.82420	383.73495	479.02393	96.93762	252.88574	468.10886	85.62145	250.03734	377.39487	185.51685	267.58047	404.23743	53.40632	120.76922	508.34561	-3.57498	97.81654	456.67407	23.70754	117.16689	402.91977	-14.80442	1030.46655	215.73668	-204.34251	978.07819	121.71507	-197.29022	606.55731	71.15691	-213.33795	569.20160	82.89685	-253.52875	627.91101	92.05576	-256.36880	586.06543	95.31939	-193.47334	527.20276	87.40194	-225.55270	508.12244	227.06229	-177.80928	262.48978	93.77908	-180.11455	215.86441	104.53957	-239.73065	261.24310	98.23692	-231.49768	211.40479	105.90555	-188.64807	105.50697	126.09215	-240.26564	135.88771	207.51425	-143.63556	70.09376	210.78062	-356.26691	56.57383	198.15659	-384.74734	65.27038	141.85556	-314.35941	42.60666	86.63755
1845	7.37600	-5.18530	1031.24890	295.51187	-191.43874	996.58453	416.00491	-85.45956	704.84760	471.92245	-102.26035	664.84839	476.92877	-142.00108	721.65356	493.81091	-150.36816	678.62140	494.27451	-180.29694	499.80896	480.55875	-190.21744	493.34586	381.61667	-86.05463	457.02423	480.88770	-54.01077	426.17340	482.71701	-124.80300	409.63629	475.66586	-88.01467	384.30508	478.57919	90.24413	252.69701	467.38882	78.99658	249.98773	376.51077	178.71498	266.95108	403.32489	46.04221	120.68058	507.61697	-11.05375	97.97125	456.20538	14.58768	116.95832	403.44849	-17.26706	1030.93860	215.13098	-200.95982	975.53949	123.08208	-198.40779	606.57776	70.66910	-214.27472	569.25372	82.39468	-254.72630	627.79883	91.42892	-257.39972	585.86865	94.68455	-194.24324	527.34198	87.04848	-226.70349	508.41263	226.66866	-178.09747	262.58502	93.54031	-180.32797	215.98666	104.36882	-240.02924	261.09488	98.39426	-231.68762	211.39671	105.64292	-188.69588	105.47530	125.93726	-240.41057	135.97044	207.27631	-143.66122	70.19794	210.71248	-356.02075	57.04023	198.55237	-384.74680	65.17239	141.80273	-314.33377	42.54354	86.56037
1846	7.38000	-7.68182	1031.67346	294.93869	-193.98709	996.90112	415.46417	-89.50773	705.04065	471.51819	-106.43897	665.45624	476.32996	-145.83430	722.42200	493.45026	-154.12093	679.52759	494.34503	-185.85893	500.81482	480.28241	-196.32704	494.39133	380.99759	-91.62811	457.88498	480.29755	-59.97870	426.54614	482.26523	-130.72095	410.40915	475.37115	-94.09269	384.79306	478.15994	83.45757	252.34996	466.60461	72.62183	249.95917	375.63046	171.88487	266.16794	402.48199	38.73583	120.53795	507.01093	-18.96091	96.76595	455.73996	7.17624	117.14658	402.74533	-19.79386	1031.36328	214.52090	-203.48444	975.89447	122.27243	-199.50972	606.61334	70.26313	-215.30521	569.25983	81.97169	-255.06108	627.99890	90.03249	-258.56729	585.72913	93.78668	-195.24461	527.41949	86.67026	-228.27206	508.47757	226.01921	-178.41283	262.73453	93.31849	-180.51833	216.15558	104.17835	-240.33664	261.05508	98.11969	-231.88873	211.36351	105.32515	-188.71503	105.48598	125.77186	-240.50272	136.02275	207.09039	-143.70930	70.27203	210.65401	-356.88815	57.43487	198.35109	-384.74832	65.10538	141.73604	-314.35419	42.46785	86.53809
1847	7.38400	-10.17809	1032.08801	294.36288	-196.45602	997.34039	414.78989	-93.43500	705.28076	471.06424	-110.60325	665.85883	475.89432	-150.95209	722.83765	492.27493	-158.33624	680.20782	493.91727	-191.85768	501.60770	479.48926	-202.00121	495.36050	380.71793	-97.37933	458.30969	479.84045	-65.82757	426.81754	481.75238	-136.70383	411.11676	475.04291	-100.21888	385.23315	477.76465	76.52470	251.86015	465.94333	61.13525	246.88341	377.37274	164.89862	265.02164	401.55298	31.24113	120.28193	506.37585	-26.35135	98.22024	455.03220	-0.47174	117.07994	402.02679	-22.30359	1031.74719	213.95595	-205.87236	976.16541	121.60926	-200.59552	606.71136	69.74891	-216.34492	569.27679	81.54864	-256.43793	627.89325	89.37237	-259.62454	585.73767	93.08666	-196.17622	527.51465	86.31695	-229.32910	508.60950	225.65862	-178.74446	262.85187	93.10390	-180.75900	216.26158	103.99732	-240.67674	261.14874	97.31936	-232.14546	211.33403	105.07471	-188.77055	105.47935	125.57637	-240.60674	136.08568	206.89667	-143.70276	70.35921	210.57314	-356.61462	58.10083	197.95201	-384.77109	65.03056	141.68445	-314.32425	42.39717	86.48802
1848	7.38800	-12.57882	1032.52258	293.77258	-198.85475	997.63043	414.71878	-97.26612	705.56586	470.56097	-114.85685	666.29889	475.44577	-154.75339	723.54803	491.89886	-162.36800	680.97357	493.56342	-196.75674	502.74756	479.67926	-207.53270	496.44681	380.36414	-103.04620	458.75131	479.41208	-71.65327	427.04932	481.28799	-142.65552	411.71988	474.61591	-106.40762	385.70895	477.28979	69.60733	251.23959	465.27362	58.16714	248.99623	374.44888	157.94971	263.90201	400.77905	23.90804	120.19138	506.31366	-34.05995	97.65005	453.56790	-8.28812	116.93792	401.36649	-24.80432	1032.06555	213.40126	-208.32872	976.32458	120.86176	-201.73001	606.82172	69.31055	-217.36728	569.33368	81.06450	-257.58215	627.83264	88.81261	-260.68823	585.64697	92.46668	-197.19691	527.64441	85.96757	-230.55408	508.71600	225.16965	-179.13109	262.93066	92.91338	-181.00386	216.35411	103.80608	-240.93846	261.17532	97.00000	-232.35876	211.29637	104.87112	-188.78519	105.47194	125.43979	-240.43394	136.33678	206.91222	-143.68930	70.48397	210.47572	-356.63724	58.18714	197.93698	-384.76645	65.02621	141.60913	-314.30206	42.37276	86.44239
1849	7.39200	-15.04188	1032.89563	293.23651	-201.48547	998.15039	413.61981	-101.15812	705.86298	470.11478	-119.01774	666.63141	475.04224	-158.45702	724.25116	491.50446	-166.43947	681.70355	493.17554	-202.08600	503.73041	479.34375	-213.10052	497.45538	380.08099	-108.68897	459.11053	478.98727	-77.49750	427.22452	480.76837	-148.71109	412.30923	474.17572	-112.48489	386.06979	476.84897	62.59556	250.48688	464.62106	46.83805	245.64879	376.13315	151.18810	262.79367	400.12888	15.63320	119.45201	505.08652	-42.13907	96.64804	453.71982	-16.22381	116.69564	400.83612	-27.26387	1032.38672	212.82382	-216.46767	979.32202	118.36634	-203.01390	606.83948	68.98723	-218.46416	569.34479	80.69678	-259.53378	627.51801	89.03456	-261.78452	585.44568	92.23935	-198.12555	527.74304	85.58221	-231.46527	508.87344	224.85886	-179.44852	263.08334	92.67446	-181.26434	216.46185	103.59541	-241.26683	261.00049	97.31923	-232.59270	211.35085	104.66142	-188.78990	105.48259	125.27984	-240.51753	136.38957	206.73904	-143.68095	70.57005	210.35956	-356.61691	58.26717	197.80087	-384.75446	65.02025	141.51598	-314.32440	42.27225	86.42818
